<svg width="128" height="129" viewBox="0 0 128 129" fill="none" xmlns="http://www.w3.org/2000/svg">
<g opacity="0.7">
<path fill-rule="evenodd" clip-rule="evenodd" d="M71.388 124.619C74.4504 122.688 77.4108 120.606 80.4585 118.656C81.0849 118.255 83.3684 117.461 83.6063 116.889C83.9394 116.087 81.8421 114.512 81.3647 114.132C78.9159 112.184 76.3178 110.486 73.7021 108.771C73.3983 108.572 71.6768 107.184 71.3781 107.323C70.2424 107.849 70.5117 110.388 70.4445 111.287C70.1516 115.214 69.6404 120.588 70.3727 124.497" fill="#2E2E2E"/>
<path d="M71.388 124.619C74.4504 122.688 77.4108 120.606 80.4585 118.656C81.0849 118.255 83.3684 117.461 83.6063 116.889C83.9394 116.087 81.8421 114.512 81.3647 114.132C78.9159 112.184 76.3178 110.486 73.7021 108.771C73.3983 108.572 71.6768 107.184 71.3781 107.323C70.2424 107.849 70.5117 110.388 70.4445 111.287C70.1516 115.214 69.6404 120.588 70.3727 124.497" stroke="#2E2E2E" stroke-width="2.14823" stroke-miterlimit="1.5" stroke-linecap="round" stroke-linejoin="round"/>
<path d="M76.9782 112.988C87.9836 101.744 98.5596 81.5881 96.2911 65.0726C95.2621 57.5798 85.4529 40.3349 75.1988 46.1667C63.964 52.5568 80.4474 66.4121 88.7924 58.2171C96.1711 50.9708 94.1901 39.7614 89.2502 31.2597C80.5195 16.2348 66.6795 7.39477 49.4628 4.72743" stroke="#2E2E2E" stroke-width="2.14823" stroke-miterlimit="1.5" stroke-linecap="round" stroke-linejoin="round"/>
</g>
</svg>
